<?xml version="1.0" encoding="UTF-8" standalone="no" ?>
<!DOCTYPE svg PUBLIC "-//W3C//DTD SVG 1.1//EN" "http://www.w3.org/Graphics/SVG/1.1/DTD/svg11.dtd">
<svg xmlns="http://www.w3.org/2000/svg" xmlns:xlink="http://www.w3.org/1999/xlink" version="1.1" width="200" height="200" viewBox="0 0 200 200" xml:space="preserve">
<desc>Created with Fabric.js 4.6.0</desc>
<defs>
</defs>
<g transform="matrix(1.45 0 0 1.45 100 100)" id="7s6dFYnD9A_aDKVtvXrfQ"  >
<path style="stroke: rgb(55,147,233); stroke-width: 0; stroke-dasharray: none; stroke-linecap: butt; stroke-dashoffset: 0; stroke-linejoin: miter; stroke-miterlimit: 4; fill: rgb(27,144,27); fill-rule: nonzero; opacity: 1;" vector-effect="non-scaling-stroke"  transform=" translate(0, 0)" d="M 0 -50 C 27.6 -50 50 -27.6 50 0 C 50 27.6 27.6 50 0 50 C -27.6 50 -50 27.6 -50 0 C -50 -27.6 -27.6 -50 0 -50 z" stroke-linecap="round" />
</g>
<g transform="matrix(1.01 -0.98 0.1 0.1 131.03 86.77)" id="Pg8AlDe4OGsG34u9l4xwL"  >
<path style="stroke: rgb(117,149,125); stroke-width: 0; stroke-dasharray: none; stroke-linecap: butt; stroke-dashoffset: 0; stroke-linejoin: miter; stroke-miterlimit: 4; fill: rgb(0,0,0); fill-rule: nonzero; opacity: 1;" vector-effect="non-scaling-stroke"  transform=" translate(0, 0)" d="M -50 -20.16955 C -50 -36.644450000000006 -48.66893 -50 -47.02696 -50 L 47.02696999999999 -50 L 47.02696999999999 -50 C 48.66892999999999 -50 50.00000999999999 -36.64445 50.00000999999999 -20.16955 L 50.00000999999999 20.16955 L 50.00000999999999 20.16955 C 50.00000999999999 36.644450000000006 48.66893999999999 50 47.02696999999999 50 L -47.02696 50 L -47.02696 50 C -48.66892 50 -50 36.64445 -50 20.16955 z" stroke-linecap="round" />
</g>
<g transform="matrix(0.5 0.41 -0.09 0.11 62.66 112.48)" id="NDc7UQ9y_YyQ2zFtzgrky"  >
<path style="stroke: rgb(117,149,125); stroke-width: 0; stroke-dasharray: none; stroke-linecap: butt; stroke-dashoffset: 0; stroke-linejoin: miter; stroke-miterlimit: 4; fill: rgb(0,0,0); fill-rule: nonzero; opacity: 1;" vector-effect="non-scaling-stroke"  transform=" translate(0, 0)" d="M -50 -36.30346 C -50 -43.867850000000004 -48.66715 -50 -47.02299 -50 L 47.023 -50 L 47.023 -50 C 48.66716 -50 50.00001 -43.86785 50.00001 -36.30346 L 50.00001 36.303470000000004 L 50.00001 36.303470000000004 C 50.00001 43.86786000000001 48.66716 50.00001 47.023 50.00001 L -47.02299 50.00001 L -47.02299 50.00001 C -48.66715 50.00001 -50 43.86786 -50 36.303470000000004 z" stroke-linecap="round" />
</g>
</svg>